<?xml version="1.0" encoding="iso-8859-1"?>
<!-- Generator: Adobe Illustrator 19.0.0, SVG Export Plug-In . SVG Version: 6.00 Build 0)  -->
<svg version="1.1" id="Capa_1" xmlns="http://www.w3.org/2000/svg" xmlns:xlink="http://www.w3.org/1999/xlink" x="0px" y="0px"
	 viewBox="0 0 512 512" style="enable-background:new 0 0 512 512;" xml:space="preserve">
<g>
	<g>
		<g>
			<rect x="176" y="239.76" width="32" height="32"/>
			<rect x="304" y="239.76" width="32" height="32"/>
			<path d="M432,303.76c-0.027-49.472-20.945-96.631-57.6-129.856l55.024-55.04l-22.64-22.624L348.64,154.4
				c-56.653-35.519-128.627-35.519-185.28,0l-58.144-58.16l-22.624,22.624l55.008,55.04C100.945,207.129,80.027,254.288,80,303.76H0
				v32h512v-32H432z M112,303.76c0-79.529,64.471-144,144-144s144,64.471,144,144H112z"/>
			<rect x="480" y="383.76" width="32" height="32"/>
			<rect y="383.76" width="32" height="32"/>
			<rect x="64" y="383.76" width="384" height="32"/>
		</g>
	</g>
</g>
<g>
</g>
<g>
</g>
<g>
</g>
<g>
</g>
<g>
</g>
<g>
</g>
<g>
</g>
<g>
</g>
<g>
</g>
<g>
</g>
<g>
</g>
<g>
</g>
<g>
</g>
<g>
</g>
<g>
</g>
</svg>
